/* XPM */
static char *cat1683639614[] = {
/* columns rows colors chars-per-pixel */
"32 32 222 2 ",
"   c #37250C",
".  c #3A2614",
"X  c #3D3121",
"o  c #4A2D13",
"O  c #573A1B",
"+  c #4C3B2A",
"@  c #553D26",
"#  c #5C422B",
"$  c #594937",
"%  c #644526",
"&  c #6A4C31",
"*  c #614C39",
"=  c #765333",
"-  c #7B5D3D",
";  c #7C5538",
":  c #745132",
">  c #6B5947",
",  c #725943",
"<  c #775A44",
"1  c #895428",
"2  c #845F3E",
"3  c #885D3A",
"4  c #935D2E",
"5  c #846039",
"6  c #8E643E",
"7  c #93683C",
"8  c #B6783C",
"9  c #A46F3C",
"0  c #856343",
"q  c #8A6542",
"w  c #8C694B",
"e  c #976C47",
"r  c #95714B",
"t  c #9D754D",
"y  c #8D6D53",
"u  c #946E51",
"i  c #937053",
"p  c #9C7252",
"a  c #9D7955",
"s  c #9C7A5C",
"d  c #97765A",
"f  c #A47644",
"g  c #A57A4B",
"h  c #AC7C4B",
"j  c #A67748",
"k  c #B77B43",
"l  c #BC7B43",
"z  c #B87741",
"x  c #A27752",
"c  c #A47C53",
"v  c #AB7E53",
"b  c #A37C5C",
"n  c #A97C5C",
"m  c #A47758",
"M  c #9C7C63",
"N  c #A07E63",
"B  c #AB7E61",
"V  c #C07E41",
"C  c #B4834E",
"Z  c #BC824A",
"A  c #AE835B",
"S  c #A78159",
"D  c #B38454",
"F  c #BA8553",
"G  c #BE8B54",
"H  c #BB8C5E",
"J  c #B5865C",
"K  c #BC955E",
"L  c #9D8C7A",
"P  c #A48263",
"I  c #AB8663",
"U  c #AC896B",
"Y  c #AB8768",
"T  c #B38963",
"R  c #BC8D64",
"E  c #B48D6B",
"W  c #B98E6A",
"Q  c #B08261",
"!  c #BC936B",
"~  c #B7926A",
"^  c #AD8C70",
"/  c #A38E7B",
"(  c #B38F74",
")  c #B88F71",
"_  c #B59174",
"`  c #BA9474",
"'  c #BE9977",
"]  c #BB967A",
"[  c #BC997C",
"{  c #B69778",
"}  c #C48244",
"|  c #C98748",
" . c #D28D4B",
".. c #DB944F",
"X. c #C38D5B",
"o. c #C6935C",
"O. c #CA955A",
"+. c #C69054",
"@. c #D99452",
"#. c #D79859",
"$. c #E39E5A",
"%. c #E39A55",
"&. c #E9A25E",
"*. c #C08B61",
"=. c #C3946B",
"-. c #CB9B6C",
";. c #C69365",
":. c #D19A65",
">. c #D49F6F",
",. c #C49674",
"<. c #C59B72",
"1. c #C39C7D",
"2. c #CB9E7B",
"3. c #CA9D74",
"4. c #D6A26C",
"5. c #DCA66A",
"6. c #CBA27B",
"7. c #C9A27A",
"8. c #DBA473",
"9. c #D6AA7D",
"0. c #DCAC7C",
"q. c #D6A777",
"w. c #EBA562",
"e. c #E7A96B",
"r. c #F4AC67",
"t. c #E5AC72",
"y. c #E9AE71",
"u. c #E2AC79",
"i. c #EBB173",
"p. c #E5B27B",
"a. c #EAB67B",
"s. c #F3B274",
"d. c #F4B679",
"f. c #FEBB7B",
"g. c #FAB776",
"h. c #F9B36E",
"j. c #BF9D82",
"k. c #B9A58C",
"l. c #C29E82",
"z. c #C4A183",
"x. c #CAA586",
"c. c #C7A48A",
"v. c #CBA78A",
"b. c #CCAA8D",
"n. c #CEAB87",
"m. c #D4AA83",
"M. c #D3AC8C",
"N. c #D9AC86",
"B. c #DDB28C",
"V. c #D6B08A",
"C. c #CEAD93",
"Z. c #D3AE92",
"A. c #D5B395",
"S. c #D6B499",
"D. c #D9B599",
"F. c #DBBA9D",
"G. c #DCB793",
"H. c #CDB39A",
"J. c #EAB583",
"K. c #E5BA8B",
"L. c #EBBC8C",
"P. c #E5B685",
"I. c #F8BE84",
"U. c #E9BE95",
"Y. c #E3BD9C",
"T. c #E7BD98",
"R. c #DDBDA3",
"E. c #DAB4A7",
"W. c #DBBFB1",
"Q. c #E2BEA2",
"!. c #E4BDAC",
"~. c #FDC285",
"^. c #FAC48C",
"/. c #F6C48C",
"(. c #EDC295",
"). c #E6C19E",
"_. c #EEC49A",
"`. c #F3C494",
"'. c #FDCA94",
"]. c #FBCC9B",
"[. c #F4C899",
"{. c #FED19F",
"}. c #DCC4A9",
"|. c #D9C8B6",
" X c #E4C1A4",
".X c #EAC5A4",
"XX c #E4C4AA",
"oX c #E9C8AA",
"OX c #F4CBA5",
"+X c #FDCEA3",
"@X c #F6CFAC",
"#X c #FED4A4",
"$X c #FDD3AB",
"%X c #FFDBAD",
"&X c #F3D0AA",
"*X c #E6CCB4",
"=X c #E8CCB4",
"-X c #ECD1B5",
";X c #E6D0B9",
":X c #ECD2BB",
">X c #FBD5B3",
",X c #FDDCB2",
"<X c #F4DDBE",
"1X c #FADDBA",
"2X c #F5D5B8",
"3X c #FEE2BB",
"4X c #FFE1B6",
"5X c #DFCFC0",
"6X c #EDD9C6",
"7X c #F5DBC3",
"8X c #FDE5C3",
"9X c #F5E3CF",
"0X c #FDEBCC",
"qX c #FCE8C6",
"wX c #FDEDD2",
"eX c #F8EADC",
"rX c #EFE1D6",
"tX c #FDF4EC",
"yX c #FFF4E4",
"uX c #FFF5F5",
"iX c #FEFDFA",
"pX c #FDFCF6",
/* pixels */
"s P Y P x g j f j v S I _ Y ( _ _ U S S 9 7 y , , , < y j.C.c.j.",
"N U U I c c h f h A T ` ' ( ( ( ( ( I h C C 5 - - # , y j.c.x.b.",
"Y _ _ Y I A C C C D W ' [ ] _ 1.' ` T C f 9 7 - #   - y j.b.b.b.",
"( j.` E ~ J C C F J ~ [ ] ] U ( [ [ T T C f r % o # w d j.A.A.b.",
"_ 1.( ) ~ H F F G H ! 7.] ] m u Y { E a w & # # O - i d [ S.S.C.",
"` [ ( ) ! R G G o.X.<.x.l.l.Y u - @ O .   .   $ % i i P j.S.A.A.",
"[ 1.,.1.,.R +.+.+.;.3.l.l.b.l.B b : & @ X # $ - q p i P c.D.D.F.",
"c.z.l.n.2.=.o.+.O.-.6.c.v.b.x.b m x ; $ $ $ = 6 T b d P c.F.F.F.",
"Z.x.v.Z.1.;.:.O.O.4.6.6.Z.Z.x.m v w = = > > ; 0 S g s U v.S.}.F.",
"M.x.b.M.2.=.:.#.:.4.9.M.Z.Z.Z.E h q 3 a < w e 2 a a s U C.R. XR.",
"b.c.M.M.6.>.5.5.5.4.9.G.D.D.D.] j m s ] p T ^ y r a P ^ C.}.oX}.",
"b.b.A.M.m.4.5.5.5.8.N.G.D.D.D.1.u w + / Q ` $ + 0 s U ^ C. XoX X",
"Z.A.Q.G.B.q.0.5.t.8.B.G.F.F.R._ & m @ & *.R @ L = s ^ _ S.XX=XXX",
"V.B.B.q.q.-.p.u.t.p.K.). X}.Q.l.: t l.x 9 4 I E = s _ { S.*X=X=X",
":.;.*.X.l h t.t.t.a.K. XoXXXXXZ.6 6 h V 1 1 X.7 5 I ' [ F.=X=X*X",
"l z z l k z y.y.a.a.K.XX=X XoXR.0 ` v N.E ) 8.=.q Y ' [ R.-X;X*X",
"8 V k Z V V t.a.p.K.U. XoX.X!.Q.B *.N.T.!.E.Y.F y P c.k.}.:X:X;X",
"V } Z } V Z y.a.a./.(..X.X X).Y.m =.3.T.S.F.M.e q Y j.b.XX=X;X7X",
"} | | | | } y.I.d./.`._.T.Y.U.U.t n W B..XG.W e e S v.b.XX;X6X6X",
"|  . . . .| y.~././.`._.U.U._.U.g =.m N.7.=.x x ~ t x.b.Q.7X8X:X",
" ......... .y.^./.'.`.`._.[.].L.q.R ,.2.-.F v B 2.t W G.XX<X2X:X",
"......&.&.@.y.^.^./.[.[.[.].+XL.-.N.J *.:.X.F ,.t W Q .XOX>X@X>X",
"$.$.&.&.&.&.i.'.'.`.'.{.].#X{.a.n =.L.P.8.u.>.v r 7.A OX+X$X@XOX",
"&.w.w.&.r.&.d.'.].].{.#X{.{.{.B.6.! K J.I.J.-.=.V.6.x U.>X+X+X`.",
"y.r.r.s.h.r.d.{.#X+X{.#X#X#X#XJ.N._.K.J.^.y.p.o.,.~ ~ n.&X$X[.'.",
"s.h.h.d.g.g.I.#X$X#X%X%X%X%X].0.n ! m.].'.>.q.0.K.K.~ U %X,X>X@X",
"~.f.f.~.~.f.~.%X,X%X%X%X4X4X,XB.2.m.N.L.L.L.L.9.>.(.~ S .X>X>X@X",
"/.~.~.^.^.~./.%X,X,X4X4X3X8X,X9.m.U.].`.J.U.(._.7.M.I [ S.1X3X,X",
"'.'.'.[.].'.].4X1X4X3X8XqXqX,XM.N._.[.[.[.#X(.%X2XS.M H.}.9XqX<X",
"#X{.{.&X#X{.$X3XqX3XqXqXqX0X8XF.B.$X,X&X.X1X.X3X-X}.k.|.6XtXuXtX",
"%X#X#X,X4X#X%X8X8XqX0XwXwX0X<XG.S.-X3X:X:X7X;X9X9XyXyXyXpXiXiXiX",
"4X4X4X1X4X%X,X0X0X0X0XwXwXwX0X&X}.rXyX6X5XrXrXtXuXuXuXiXiXpXiXiX"
};
