/* XPM */
static char *shopping1683898581[] = {
/* columns rows colors chars-per-pixel */
"32 32 143 2 ",
"   c #1E2503",
".  c #212705",
"X  c #222905",
"o  c #20260F",
"O  c #292E13",
"+  c #2D3113",
"@  c #263418",
"#  c #2E321A",
"$  c #2E3E1E",
"%  c #343416",
"&  c #343619",
"*  c #36381E",
"=  c #3B3B1C",
"-  c #363A22",
";  c #3B3D23",
":  c #2C3430",
">  c #323731",
",  c #303934",
"<  c #3C4027",
"1  c #3D4028",
"2  c #444328",
"3  c #49472A",
"4  c #4C4A2E",
"5  c #444735",
"6  c #454834",
"7  c #4E4D32",
"8  c #424138",
"9  c #4A4D3D",
"0  c #514D32",
"q  c #4E5039",
"w  c #565237",
"e  c #59563C",
"r  c #515A3A",
"t  c #5E593D",
"y  c #605B3F",
"u  c #4B4E41",
"i  c #545742",
"p  c #52554E",
"a  c #595B4F",
"s  c #615A4A",
"d  c #6C6C4E",
"f  c #736A4F",
"g  c #6D6C56",
"h  c #606159",
"j  c #716754",
"k  c #6D6F66",
"l  c #B64F3F",
"z  c #995041",
"x  c #B34F40",
"c  c #A2584C",
"v  c #B05B4B",
"b  c #B95949",
"n  c #837B5E",
"m  c #A96B5A",
"M  c #BA6954",
"N  c #BD705A",
"B  c #807B64",
"V  c #B17D69",
"C  c #C0735C",
"Z  c #8F876C",
"A  c #9A866A",
"S  c #968D6F",
"D  c #898971",
"F  c #969176",
"G  c #9B9375",
"H  c #929079",
"J  c #9D967A",
"K  c #9F9979",
"L  c #B88D64",
"P  c #B3856C",
"I  c #A4977B",
"U  c #A0987A",
"Y  c #BB957A",
"T  c #ACA07D",
"R  c #B4A57E",
"E  c #8E8F88",
"W  c #959790",
"Q  c #989C94",
"!  c #9F9F9A",
"~  c #ACA483",
"^  c #B0A583",
"/  c #B3AA83",
"(  c #B8A985",
")  c #B5AC8A",
"_  c #BAAD8B",
"`  c #BCAF91",
"'  c #BDB290",
"]  c #A7A7A3",
"[  c #A7A8A3",
"{  c #ACADAA",
"}  c #B5B6B1",
"|  c #B9BAB7",
" . c #C7AA86",
".. c #CEB086",
"X. c #C4B68C",
"o. c #CBBA8E",
"O. c tan",
"+. c #D6B98F",
"@. c #C2B592",
"#. c #C5B994",
"$. c #CCBC96",
"%. c #CBBE9A",
"&. c #D3B790",
"*. c #D9BF96",
"=. c #D4BC9A",
"-. c #CEC29D",
";. c #D5C394",
":. c #DAC495",
">. c #DDCA97",
",. c #D4C59C",
"<. c #DAC69B",
"1. c #D5C99F",
"2. c #DCCA9C",
"3. c #E0CD9D",
"4. c #D5C9A1",
"5. c #DDCCA2",
"6. c #DBD1A5",
"7. c #C1C2BF",
"8. c #E0CFA3",
"9. c #E3D3A4",
"0. c #E8D7A7",
"q. c #E6D6A9",
"w. c #E8D6A8",
"e. c #E7D9AA",
"r. c #E9DAAC",
"t. c #C2C3C1",
"y. c #C8C9C8",
"u. c #D1D2CF",
"i. c #D5D5D3",
"p. c #D9DAD7",
"a. c #DFE0DE",
"s. c #EAE5DA",
"d. c #EBE8DD",
"f. c #E4E5E3",
"g. c #E7E8E5",
"h. c #EEEBE3",
"j. c #F0EFE9",
"k. c #F2F2EE",
"l. c #F5F5F2",
"z. c #F8F7F2",
"x. c #F7F8F6",
"c. c #F9F9F6",
"v. c #F9F9F9",
/* pixels */
"v.v.v.v.v.v.v.v.v.v.v.v.i.8 @.-.' , z.v.v.v.v.v.v.v.v.v.v.v.v.v.",
"v.v.v.v.v.v.v.v.v.v.v.v.i.: ' ' ' , g.v.v.v.v.v.v.v.v.v.v.v.v.v.",
"v.v.v.v.v.v.v.v.v.v.v.v.y., ` ` ) > a.v.v.v.v.v.v.v.v.v.v.v.v.v.",
"v.v.v.v.v.v.v.v.v.v.v.v.7., _ ' _ : p.v.v.v.v.v.v.v.v.v.v.v.v.v.",
"v.v.v.v.v.v.v.v.v.v.v.v.| : ` $.@.: y.v.v.v.v.v.v.v.v.v.v.v.v.v.",
"v.v.v.v.v.v.v.v.v.v.v.v.} , _ =.$.: 7.v.v.v.v.v.v.v.v.v.v.v.v.v.",
"v.v.v.v.v.v.v.v.v.v.v.v.{ u Y z P s } v.v.v.v.v.v.v.v.v.v.v.v.v.",
"v.v.v.v.v.v.v.v.v.v.v.v.] j P m V B ] v.v.v.v.v.v.v.v.v.v.v.v.v.",
"v.v.v.v.v.v.v.v.v.v.v.v.Q r Y c P f Q v.v.v.v.v.v.v.v.v.v.v.v.v.",
"v.v.v.v.v.v.v.v.v.v.v.l.h $ d A n @ p k.v.v.v.v.v.v.v.v.v.v.v.v.",
"v.v.v.v.v.v.v.v.v.v.l.[ O .   .     o W l.v.v.v.v.v.v.v.v.v.v.v.",
"v.v.v.v.v.v.v.v.v.v.! # X . . .   . o O E l.v.v.v.v.v.v.v.v.v.v.",
"v.v.v.v.v.v.v.v.v.t.; @ O % + . % - o O - } v.v.v.v.v.v.v.v.v.v.",
"v.v.v.v.v.v.v.v.l.k - & = 0 3 = 4 7 * O - a j.v.v.v.v.v.v.v.v.v.",
"v.v.v.v.v.v.v.v.g.9 ; = 4 t 0 2 0 w 0 % ; 5 p.v.v.v.v.v.v.v.v.v.",
"v.v.v.v.v.v.v.v.f.9 < ; w y 4 = 4 e w % ; 8 u.v.v.v.v.v.v.v.v.v.",
"v.v.v.v.v.v.v.v.f.9 1 = 7 e 2 < 6 q 7 % - 6 i.x.v.v.v.v.v.v.v.v.",
"v.v.v.v.v.v.v.v.f.u i Z ^ #.%.$.$.$._ S g 5 u.x.v.v.v.v.v.v.v.v.",
"v.v.v.v.v.v.v.v.g.I ;.3.q.q.9.,.5.6.9.3.;.R i.v.v.v.v.v.v.v.v.v.",
"v.v.v.v.v.v.v.v.j.;.X.4.F ~ -.D 4.S -.U R o.s.v.v.v.v.v.v.v.v.v.",
"v.v.v.v.v.v.v.v.k.( _ T H H #.D 1.' G / k G s.c.v.v.v.v.v.v.v.v.",
"v.v.v.v.v.v.v.v.k._ U T -.,.4.#.6.' 1.J U K d.v.v.v.v.v.v.v.v.v.",
"v.v.v.v.v.v.v.v.k._ ,.9.0.e.9...5.r.e.9.>.o.s.c.v.v.v.v.v.v.v.v.",
"v.v.v.v.v.v.v.v.z.,.>.9.0.r.;.L  .q.q.6.>.:.d.c.v.v.v.v.v.v.v.v.",
"v.v.v.v.v.v.v.v.l.>.>.3.0.e.M v v +.e.>.:.:.d.v.v.v.v.v.v.v.v.v.",
"v.v.v.v.v.v.v.v.l.<.;.#.4.r.C l b &.6.X.X.;.d.v.v.v.v.v.v.v.v.v.",
"v.v.v.v.v.v.v.v.z.<.>.3.e.r.N l x &.0.>.:.;.d.v.v.v.v.v.v.v.v.v.",
"v.v.v.v.v.v.v.v.z.<.3.9.r.:.<.O.<.*.3.9.>.;.h.v.v.v.v.v.v.v.v.v.",
"v.v.v.v.v.v.v.v.v.<.3.w.r.w.+...&.8.w.8.>.;.h.v.v.v.v.v.v.v.v.v.",
"v.v.v.v.v.v.v.v.c.<.3.X.=.5.<.<.,.2.<.o.o.;.h.v.v.v.v.v.v.v.v.v.",
"v.v.v.v.v.v.v.v.v.<.:.:.3.9.8.3.2.w.2.;.;.;.j.v.v.v.v.v.v.v.v.v.",
"v.v.v.v.v.v.v.v.v.5.;.#.,.4.4.-.4.,.%.$.X.;.j.v.v.v.v.v.v.v.v.v."
};
