/* XPM */
static char *result[] = {
/* columns rows colors chars-per-pixel */
"50 50 198 2 ",
"   c #322C43",
".  c #392E45",
"X  c #362D4A",
"o  c #3F3046",
"O  c #462E43",
"+  c #423046",
"@  c #4B3146",
"#  c #42304C",
"$  c #4D344A",
"%  c #543346",
"&  c #53364B",
"*  c #5A374A",
"=  c #5B394C",
"-  c #463E51",
";  c #5C3952",
":  c #653C47",
">  c #633B4B",
",  c #6B3C4E",
"<  c #693647",
"1  c #7C3646",
"2  c #733D4D",
"3  c #7C3C4E",
"4  c #753647",
"5  c #643D52",
"6  c #6A3F54",
"7  c #723E52",
"8  c #7A3E50",
"9  c #6D424D",
"0  c #76404C",
"q  c #7C434E",
"w  c #7F4B4D",
"e  c #6D4154",
"r  c #6C485C",
"t  c #6E4758",
"y  c #734455",
"u  c #7B4452",
"i  c #7A4B58",
"p  c #7C5154",
"a  c #7B5258",
"s  c #77545D",
"d  c #565968",
"f  c #694D61",
"g  c #6C5365",
"h  c #785F73",
"j  c #6E6076",
"k  c #6F6379",
"l  c #726B7E",
"z  c #736376",
"x  c #7C727F",
"c  c #9C323A",
"v  c #A23539",
"b  c #8C3A46",
"n  c #823B4B",
"m  c #8B3C49",
"M  c #833A45",
"N  c #923A45",
"B  c #8A4246",
"V  c #85454E",
"C  c #8B434D",
"Z  c #8C4A4E",
"A  c #87494A",
"S  c #964345",
"D  c #9A4445",
"F  c #93444A",
"G  c #9B4649",
"H  c #944B4D",
"J  c #9C4B4B",
"K  c #8F524C",
"L  c #94534E",
"P  c #9D534D",
"I  c #9C594D",
"U  c #844650",
"Y  c #844B53",
"T  c #8B4C51",
"R  c #864F5A",
"E  c #884F59",
"W  c #8B4750",
"Q  c #904F50",
"!  c #845356",
"~  c #8B5454",
"^  c #855359",
"/  c #885358",
"(  c #865D5A",
")  c #935452",
"_  c #985650",
"`  c #945A55",
"'  c #9C5C52",
"]  c #A44B46",
"[  c #AA4C45",
"{  c #A34C49",
"}  c #A64845",
"|  c #B54E40",
" . c #A3544E",
".. c #A35A4E",
"X. c #AE544A",
"o. c #BC5543",
"O. c #B25649",
"+. c #B55B4C",
"@. c #B55547",
"#. c #A45C52",
"$. c #AA5B51",
"%. c #95644F",
"&. c #8D645C",
"*. c #976357",
"=. c #9B6256",
"-. c #92665D",
";. c #956C5E",
":. c #9C7259",
">. c #AD634F",
",. c #B9614F",
"<. c #A56252",
"1. c #AB6450",
"2. c #A66855",
"3. c #AB6B53",
"4. c #A76659",
"5. c #B26153",
"6. c #B26D53",
"7. c #BA6956",
"8. c #A2735F",
"9. c #AF7353",
"0. c #B37555",
"q. c #BA7755",
"w. c #B67957",
"e. c #815B6A",
"r. c #885C69",
"t. c #876564",
"y. c #916963",
"u. c #8D706A",
"i. c #91736C",
"p. c #997D71",
"a. c #A27362",
"s. c #AD7D63",
"d. c #AB7763",
"f. c #BA7864",
"g. c #C25640",
"h. c #CC6044",
"j. c #D36544",
"k. c #C26B54",
"l. c #C66B52",
"z. c #C47F56",
"x. c #CC7558",
"c. c #D37A5A",
"v. c #9D8173",
"b. c #AC8062",
"n. c #B28664",
"m. c #B58A65",
"M. c #BA8E66",
"N. c #B48D6C",
"B. c #BD9066",
"V. c #BE9269",
"C. c #AA8B77",
"Z. c #AD947E",
"A. c #BB9674",
"S. c #BD9976",
"D. c #B2987C",
"F. c #D9805D",
"G. c #C1976D",
"H. c #C39C73",
"J. c #C6A37B",
"K. c #C9A57C",
"L. c #CBA87F",
"P. c #C6A177",
"I. c #D8AA7C",
"U. c #7C7E8B",
"Y. c #777484",
"T. c #727D95",
"R. c #646D83",
"E. c #7D808C",
"W. c #758299",
"Q. c #778D99",
"!. c #7A8C9D",
"~. c #768597",
"^. c #7C8EA1",
"/. c #7E92A4",
"(. c #81929E",
"). c #B59D80",
"_. c #8195A6",
"`. c #859DAB",
"'. c #88A2AF",
"]. c #86A0AC",
"[. c #8AA5B1",
"{. c #8DA9B4",
"}. c #CEAC84",
"|. c #C8AC8A",
" X c #D0AF86",
".X c #CDB18B",
"XX c #D2B38A",
"oX c #DFB789",
"OX c #D5B98F",
"+X c #D0B187",
"@X c #CCB492",
"#X c #D5BA93",
"$X c #D9BE95",
"%X c #D5BC96",
"&X c #DAC097",
"*X c #DDC49B",
"=X c #DFC89E",
"-X c #E0C99F",
/* pixels */
"                                                                                                    ",
"                                                                                                    ",
"                                                                                                    ",
"                                                                                                    ",
"                                                                                                    ",
"                                                                                                    ",
"                                                                                                    ",
"                                                                                                    ",
"                                    @ > = ; 4 D b M S M S 1 B %                                     ",
"                                  . n 3 6 6 N k.k.#.O.5.+.X.N H .                                   ",
"                                  . 5 a ;.;.a 5 6 3 6 3 6 3 7 , .                                   ",
"                                + 1 y b.V.V.s.8 D X.D G } C } C B @                                 ",
"                                < n i K.*X*X*Xi.#.f.f.J f.O.f.J $.4                                 ",
"                              . ; 6 n.H.-XH.XX|.t 6 y 8 6 n 6 3 7 * .                               ",
"                            o M m ^ M.G.*X$X$XK.y.b j.h.[ o.@.o.X.G ]                               ",
"                            # 7 y N.$X$X-X-XXXG.s.7 ^ ^ / n / W T n w                               ",
"                          # 4 5 ( M.K.-X-X-X-XXX.Xp.6 m } m G N m J n C                             ",
"                        X 4 M t C.XXOX-X@X|.%X-X-X@Xy } l.7._ ,.{ +.J { M                           ",
"                          & 6 &.XX-X&XC.^ y t.Z.%X-Xp.7 6 6 n 7 3 7 n 6 &                           ",
"                        4 7 t A.-X*X8.y e T 5 e C.-X@Xe n [ [ m { G N D q M .                       ",
"                      $ m 7 &.}.*X#XW e 6 ~ 6 5 t.-X*Xi.8 5.7.4. .5.J 5.N $.@                       ",
"                      @ 5 y S.#X X%XW u Y 2.! Y y.-X-X%Xy 6 7 8 8 7 n 7 n 2 $ .                     ",
"                    < N 6 y.OX-X$X#XC u W #.' T y.=X*X*Xu.7 v j.o.X.g.J g.H | <                     ",
"                  X , , 6 m.H.-X-X%XW 6 e ~ 6 6 t.%XV..X%Xr m R / Y W T Z W 3 y .                   ",
"                  $ , 7 6 n.}.-X=X#X_ ! ! ! ! ! y.&X-X*X*Xv.6 7 u n y W 7 n 8 8 %                   ",
"                < c 6 6 6 S.XX}.$X}...*.' <.>.>.#.t.*X*XG.OXs 3 l.c.c.{ c.O.c.J o.<                 ",
"                $ 6 6 6 6 S.}.M.H.#XN.s.b.b.b.b.b.A.#XK.P.}.v.6 y y y M y m y n e @                 ",
"                  $ 6 u 6 N.#X.XP.}.+X*X&X*X&X$X+X*X&XV.V.H.J.Y 6 7 y y n 6 8 7 2 $                 ",
"                . 5 u u 6 m.H.K.}.K.I.oXoXoXoXI. X X@X$X XJ.V.Z 8 O.c.x.5.l.O.l.{ O.1               ",
"                & e ~ ) ~ 2.w.w.s.w.q.1.1.1.1.6.x.0.&.d.4.' =.T U Y / / W ^ H R C u *               ",
"                $ = Z Z H  .P ) ) ` Y H P P H P ~ Z w H H H H H W Y j j z h z g e =                 ",
"                  o u T u ` *.*.*.=.4._ G H P P 2.=.y *.=.*.*.V E i T.T.T.T.T.j y *                 ",
"                    Y Y y n.H.L.H.n.! ~ ` ~ ~ ` ` p &.V.}.V.M.! U r T.W.T.^.W.k Z >                 ",
"                  . <.#.u n. X&X-X#XJ.P.V.V.H.K.P.J.K.*X=X&XM.2._ r W.]._.{.'.k W >                 ",
"                  . #.J q A.-X-X-X-X-X=X=X*X-X-X-X-X=X=X}.V.m.<.P E /.[._.{.`.Y.H >                 ",
"                  . #.P u A.-X*X*X-X-X=X-X-X-X-X-X-X-X-X=X*X&X2.6.E W.].[.[.!.l F >                 ",
"                  . <.6.u S.-X#X*X-X-X=X-X-X-X-X-X-X-X-X-X-X*X2.6.R ~.].d - (.E.H >                 ",
"                  . <.6.u V.}.#X-X|.a.8.a.;.-.-.:.a.XX*X}.*X=X2.1.E _.Q.o + g E.H >                 ",
"                  . <.6.Y N.&X=X-X).> > > ; = = ; 9 H.}.$X-X*X4.6.E W.R.@ @ f l H >                 ",
"                  . <.6.V S.-X=X-X).= 0 ~ 0 A 9 w : H.&X*X-X*X4.6.E !.~.* : g Y.H >                 ",
"                  . L 6.V S.-X-X-X).= 2.w.0.q.w.3.: }.-X-X&X*X4.6.E ~.Q.@ @ g U.H >                 ",
"                  . Z $.V A.XX&X=X).* K 9.w.0.9.%.> J.-X-X}.#X=.6./ ^.Q.o # g U.C >                 ",
"                  . C I T m.H.}.-X).& 9 9 * 9 * = : K.-X-X-X}.' 5./ !.z L A W x H >                 ",
"                  . Z  .V S.XX}.OXD.: 2.3.A P 0 Y : K..X}.}..X' ..R E.e.r.h e.Y.H >                 ",
"                  . L ..U A.}.K.}.D.: %.q.K 1.K I : J.H.H.H.&X<...i _._.W././.Y.C >                 ",
"                  . H I U n.V.J.B.:.* w I w _ 9 w : H.H.&X#XG.' ..i _.'._.{.^.Y.W >                 ",
"                  . H ..y m.}.&X}.:.* L ! p / p p : M.H.H.K.V.' #.i W.[.[.[.`.Y.W >                 ",
"                  . H ..u n.H.K.V.:.* ' z.z.z.z.1.: m.J.H.V.M._ ..i T.W.`.'._.k W >                 ",
"                  . Z ..y L L I _ w & ; 0 = q > > $ L _ _ _ ` <...W _ ) ` ` ` Y Z >                 ",
"                  . w K , 2 0 0 2 > $ & & $ & $ $ $ 0 0 0 0 0 K L 3 0 2 0 0 2 6 2 *                 "
};
