/* XPM */
static char *result[] = {
/* columns rows colors chars-per-pixel */
"50 50 152 2 ",
"   c #030502",
".  c #030902",
"X  c #0B0C0E",
"o  c #061502",
"O  c #081701",
"+  c #071902",
"@  c #091D02",
"#  c #0D120F",
"$  c #0D1B0C",
"%  c #0E0D15",
"&  c #16141E",
"*  c #191C1F",
"=  c #121B15",
"-  c #32191C",
";  c #0B2203",
":  c #0F2C04",
">  c #0E2008",
",  c #122E05",
"<  c #10240B",
"1  c #133206",
"2  c #173B07",
"3  c #153708",
"4  c #163A08",
"5  c #193D09",
"6  c #1B2A18",
"7  c #1C3710",
"8  c #1D3914",
"9  c #203E12",
"0  c #2F3B1A",
"q  c #30351C",
"w  c #333B1D",
"e  c #181621",
"r  c #1C1924",
"t  c #211E2C",
"y  c #311D24",
"u  c #23212D",
"i  c #242F29",
"p  c #3D2527",
"a  c #252132",
"s  c #2B2131",
"d  c #2D273B",
"f  c #312A3D",
"g  c #373639",
"h  c #343635",
"j  c #492804",
"k  c #432504",
"l  c #5B2803",
"z  c #4D2C15",
"x  c #5B3113",
"c  c #60330B",
"v  c #6D3B16",
"b  c #583721",
"n  c #1D430B",
"m  c #1E4C0B",
"M  c #214C0D",
"N  c #24520F",
"B  c #255C0E",
"V  c #214314",
"C  c #254B14",
"Z  c #255610",
"A  c #275A11",
"S  c #2B5E14",
"D  c #2E581A",
"F  c #305F1C",
"G  c #2A6211",
"H  c #2C6B12",
"J  c #306F15",
"K  c #32611C",
"L  c #34691D",
"P  c #357617",
"I  c #2D5020",
"U  c #3A6D22",
"Y  c #3F7425",
"T  c #3D7E21",
"R  c #46460B",
"E  c #45462A",
"W  c #464C2A",
"Q  c #4B4B2E",
"!  c #4F5531",
"~  c #525331",
"^  c #525934",
"/  c #595C39",
"(  c #784722",
")  c #7B4B26",
"_  c #6A4B36",
"`  c #417527",
"'  c #407D25",
"]  c #467F2A",
"[  c #526233",
"{  c #5E613E",
"}  c #546B33",
"|  c #2F2940",
" . c #312B43",
".. c #353044",
"X. c #3C374A",
"o. c #674F46",
"O. c #626342",
"+. c #646E42",
"@. c #7E604A",
"#. c #6B7448",
"$. c #6D7949",
"%. c #70784C",
"&. c #737256",
"*. c #7E7D56",
"=. c #875633",
"-. c #885D3C",
";. c #8B6B54",
":. c #817F57",
">. c #A17B5F",
",. c #A87C58",
"<. c #A17453",
"1. c #3D871E",
"2. c #438525",
"3. c #438B25",
"4. c #478929",
"5. c #499126",
"6. c #4C982A",
"7. c #4E8E32",
"8. c #568336",
"9. c #5F813B",
"0. c #558F3A",
"q. c #558D34",
"w. c #589F38",
"e. c #658E3F",
"r. c #4BA222",
"t. c #51A22F",
"y. c #53A032",
"u. c #5CA53A",
"i. c #61AD3D",
"p. c #62B736",
"a. c #61B33B",
"s. c #6FBF3E",
"d. c #6DDA3A",
"f. c #84825B",
"g. c #88875F",
"h. c #8C8B62",
"j. c #889664",
"k. c #94936F",
"l. c #98976C",
"z. c #98986D",
"x. c #959472",
"c. c #9B9A73",
"v. c #989778",
"b. c #A19F72",
"n. c #A1A074",
"m. c #A5A57B",
"M. c #A8A77F",
"N. c #C49875",
"B. c #88D94C",
"V. c #AAA983",
"C. c #AFAE88",
"Z. c #DBAB87",
/* pixels */
" . . . . . . . . . . . . . . . . . . . . . . . . . . . . . . . . . . . . . . . . . . . . . . . . . .",
" . . . . . . . . . . . . . . . . . . . . . . . . . . . . . . . . . . . . . . . . . . . . . . . . . .",
" . . . . . . . . . . . . . . . . . . . . . . . . . . . . . . . . . . . . . . . . . . . . . . . . . .",
" . . . . . . . . . . . . . . . . . . . . . . . . . . . . . . . . . . . . . . . . . . . . . . . . . .",
" . . . . . . . . . . . . . . . . . . . . . . . . . . . . . . . . . . . . . . . . . . . . . . . . . .",
" . . . . . . . . . . . . . . . . . . . . . . . . . . . . . . . . . . . . . . . . . . . . . . . . . .",
" . . . . . . . . . . . . . . . . . . . . . . . . . . . . . . . . . . . . . . . . . . . . . . . . . .",
" . . . . . . . . . . . . . . . . . . . . . . . . . . . . . . . . . . . . . . . . . . . . . . . . . .",
" . . . . . . . . . . . . . . . . . . . . .f s t s s s f  . . . . . . . . . . . . . . . . . . . . . .",
" . . . . . . . . . . . . . . . . . . . .f o.;.@._ b z p f  . . . . . . . . . . . . . . . . . . . . .",
" . . . . . . . . . . . . . . . . . . .d y >.Z.N.,.-.) x - d  . . . . . . . . . . . . . . . . . . . .",
" . . . . . . . . . . . . . . . . . . .g k -.<.=.=.( v c j X  . . . . . . . . . . . . . . . . . . . .",
" . . . . . . . . . . . . . . . . . . .h M R l l l l l R M X  . . . . . . . . . . . . . . . . . . . .",
" . . . . . . . . . . . . . . . . . . .| u M 2.i.6.P G 5 e  . . . . . . . . . . . . . . . . . . . . .",
" . . . . . . . . . . . . . . . . . . . .t > 4 C V 1 , @ e  . . . . . . . . . . . . . . . . . . . . .",
" . . . . . . . . . . . . . . . . . . . .u ; 3 , o o @ o e  . . . . . . . . . . . . . . . . . . . . .",
" . . . . . . . . . . . . . . . . . . . .t 4 M 2 , o ; + e | | |  . . . . . . . . . . . . . . . . . .",
" . . . . . . . . . . . . . . . . . . . .u 5 A B , O ; O e |  . . . . . . . . . . . . . . . . . . . .",
" . . . . . . . . . . . . . . . . . . . .u V J H 1 @ @ O r  . . . . . . . . . . . . . . . . . . . . .",
" . . . . . . . . . . . . . . . . . . . .i F ' H 1 @ @ @ e  . . . . . . . . . . . . . . . . . . . . .",
" . . . . . . . . . . . . . . . . . .f h Z T 3.N 1 @ o O ; # | | |  . . . . . . . . . . . . . . . . .",
" . . . . . . . . . . . . . . ...X.X.  M U 4.3.5 1 ; O o + ; . ..X... . . . . . . . . . . . . . . . .",
" . . . . . . . . . . . . . . .s     A ` i.a.3.5 , 1 ; @ o O ; . . a  . . . . . . . . . . . . . . . .",
" . . . . . . . . . . . . . .t 9 D ` 0.B.s.3.H 5 5 1 1 ; O + o ; ; $ a  . . . . . . . . . . . . . . .",
" . . . . . . . . . . . . .t 9 F 4.u.d.p.5.H A Z 5 2 2 1 : : O O ; ; $ r | |  . . . . . . . . . . . .",
" . . . . . . . . . . . . .& D 4.w.y.r.1.J G A A N n n 2 4 1 : + O ; @ %  .|  . . . . . . . . . . . .",
" . . . . . . . . . . . .t I ' q.e.} } } } [ [ [ [ ! ^ ^ / { O./ Q w + $ u |  . . . . . . . . . . . .",
" . . . . . . . . . . . .  U 8.j.c.n.c.c.v.v.c.c.c.c.v.c.c.z.c.z.x.&.w ;   |  . . . . . . . . . . . .",
" . . . . . . . . . . . .. K $.b.n.n.n.n.m.n.n.n.n.m.n.n.n.n.b.n.C.v.~ ;   |  . . . . . . . . . . . .",
" . . . . . . . . . . . .  N $.b.n.n.n.n.n.n.n.n.n.n.n.n.n.n.n.n.m.x.~ >   |  . . . . . . . . . . . .",
" . . . . . . . . . . . .  M $.z.n.n.n.n.n.n.n.n.n.n.n.n.n.b.b.n.m.k.! ;   |  . . . . . . . . . . . .",
" . . . . . . . . . . . .. M +.c.n.n.n.n.n.n.n.n.n.n.n.n.n.n.n.b.c.h.~ @   |  . . . . . . . . . . . .",
" . . . . . . . . . . . .  4 / c.n.n.n.n.n.n.n.n.n.n.n.n.n.n.n.n.n.g.! ;   | |  . . . . . . . . . . .",
" . . . . . . . . . . . .  4 ^ h.n.n.n.n.n.n.n.n.n.z.n.n.n.n.n.n.n.f.! ;   |  . . . . . . . . . . . .",
" . . . . . . . . . . . .. , ~ :.n.n.n.m.m.m.V.V.m.m.m.m.n.n.n.n.b.f.~ @   |  . . . . . . . . . . . .",
" . . . . . . . . . . . .  ; w { *.*.*.*.*.*.*.*.:.*.*.f.:.:.f.:.*.{ q >    . . . . . . . . . . . . .",
" . . . . . . . . . . . .s = ; w W W W W W W W W W W W W W W E E E q @ $ t  . . . . . . . . . . . . .",
" . . . . . . . . . . . . .& + : : : : : : : : : : : : , : : O o O + @ %  . . . . . . . . . . . . . .",
" . . . . . . . . . . . .| & O ; ; ; @ ; ; ; > > ; ; ; @ > ; o o ; ; @ %  . . . . . . . . . . . . . .",
" . . . . . . . . . . . . .r 6 : ; ; ; V 7 ; @ + o o o o o o o o + ; < &  . . . . . . . . . . . . . .",
" . . . . . . . . . . . . . .a > 1 n Z w.7.U Z 5 1 : , 1 , , 1 , 1 $ r  . . . . . . . . . . . . . . .",
" . . . . . . . . . . . . . . .a                                   a  . . . . . . . . . . . . . . . .",
" . . . . . . . . . . . . . . . .| | | | | | | | | | | | d | | | |  . . . . . . . . . . . . . . . . .",
" . . . . . . . . . . . . . . . . . . . .| |  . . .|  . . . . . . . . . . . . . . . . . . . . . . . .",
" . . . . . . . . . . . . . . . . . . . . . . . . . . . . . . . . . . . . . . . . . . . . . . . . . .",
" . . . . . . . . . . . . . . . . . . . . . . . . . . . . . . . . . . . . . . . . . . . . . . . . . .",
" . . . . . . . . . . . . . . . . . . . . . . . . . . . . . . . . . . . . . . . . . . . . . . . . . .",
" . . . . . . . . . . . . . . . . . . . . . . . . . . . . . . . . . . . . . . . . . . . . . . . . . .",
" . . . . . . . . . . . . . . . . . . . . . . . . . . . . . . . . . . . . . . . . . . . . . . . . . .",
" . . . . . . . . . . . . . . . . . . . . . . . . . . . . . . . . . . . . . . . . . . . . . . . . . ."
};
