/* XPM */
static char *result[] = {
/* columns rows colors chars-per-pixel */
"50 50 158 2 ",
"   c #0C0A07",
".  c #0E0C0B",
"X  c #110D0A",
"o  c #15110E",
"O  c #19120F",
"+  c #100E11",
"@  c #131115",
"#  c #1C1512",
"$  c #1F1814",
"%  c #16141B",
"&  c #18151E",
"*  c #191D1E",
"=  c #211714",
"-  c #241A16",
";  c #241C1B",
":  c #2A1D1A",
">  c #2C211D",
",  c #191621",
"<  c #1C1A24",
"1  c #1F1B29",
"2  c #251C22",
"3  c #2A1F23",
"4  c #231E2E",
"5  c #241F30",
"6  c #1B2022",
"7  c #2F2220",
"8  c #21262A",
"9  c #2D242C",
"0  c #23282B",
"q  c #2D292D",
"w  c #332522",
"e  c #3B2A26",
"r  c #342B29",
"t  c #3B2C29",
"y  c #2D3226",
"u  c #35352B",
"i  c #3D312A",
"p  c #262133",
"a  c #2A2334",
"s  c #252C30",
"d  c #2B263B",
"f  c #2E283E",
"g  c #312732",
"h  c #363835",
"j  c #38373B",
"k  c #3A3B3B",
"l  c #343533",
"z  c #402B27",
"x  c #442E29",
"c  c #45322D",
"v  c #4C342F",
"b  c #443532",
"n  c #4D3631",
"m  c #453F35",
"M  c #4D3834",
"N  c #453A38",
"B  c #4B3E39",
"V  c #513934",
"C  c #553D39",
"Z  c #4C423D",
"A  c #4D4536",
"S  c #55423C",
"D  c #5B423D",
"F  c #544C3C",
"G  c #2F2940",
"H  c #312B43",
"J  c #343141",
"K  c #3A3646",
"L  c #3C3948",
"P  c #473840",
"I  c #413E4C",
"U  c #4C3D44",
"Y  c #3A454C",
"T  c #3E4B53",
"R  c #4E4640",
"E  c #4E4940",
"W  c #42444E",
"Q  c #41494F",
"!  c #4A4B4A",
"~  c #5E4641",
"^  c #5B4841",
"/  c #5A4E49",
"(  c #524D44",
")  c #4F504F",
"_  c #5F534E",
"`  c #595F4B",
"'  c #454350",
"]  c #404D55",
"[  c #414F58",
"{  c #43515A",
"}  c #4E565D",
"|  c #515251",
" . c #575857",
".. c #5C5D5C",
"X. c #604742",
"o. c #684743",
"O. c #634A45",
"+. c #6C4B46",
"@. c #6C4F49",
"#. c #6D514B",
"$. c #74564F",
"%. c #78514D",
"&. c #72584F",
"*. c #765952",
"=. c #7C5E57",
"-. c #5A614D",
";. c #7D6057",
":. c #69755B",
">. c #6B795E",
",. c #515E66",
"<. c #57636B",
"1. c #646563",
"2. c #6C6D6B",
"3. c #6E7D61",
"4. c #707D64",
"5. c #707170",
"6. c #814F4D",
"7. c #905553",
"8. c #965C5A",
"9. c #81675F",
"0. c #8A685F",
"q. c #90615C",
"w. c #896A61",
"e. c #9C6560",
"r. c #927067",
"t. c #99766C",
"y. c #A06A65",
"u. c #B56968",
"i. c #A27D72",
"p. c #BA7470",
"a. c #748267",
"s. c #7B876F",
"d. c #7F8D74",
"f. c #828E77",
"g. c #8E857B",
"h. c #87947C",
"j. c #A68176",
"k. c #A9867B",
"l. c #9F9890",
"z. c #B48F83",
"x. c #BE9789",
"c. c #A09891",
"v. c #C09588",
"b. c #C1998B",
"n. c #C89B8E",
"m. c #CE9F92",
"M. c #CEA092",
"N. c #C1AD98",
"B. c #D2A395",
"V. c #D6A799",
"C. c #D7A899",
"Z. c #DAAB9D",
"A. c #C4B19D",
"S. c #C7B4A1",
"D. c #CEBDAB",
"F. c #E4B5A5",
"G. c #D2C2B1",
"H. c #DBCBBC",
/* pixels */
"H H H H H H H H H H H H H H H H H H H H 8 5 5 4 H H H H 5 5 H H H H H H H H H H H H H H H H H H H H ",
"H H H H H H H H H H H H H H H H H H H G       X H H H H +   G H H H H H H H H H H H H H H H H H H H ",
"H H H H H H H H H H H H H G p p p p p a e z e e 1 1 1 1 e e 4 5 G H H H H H H H H H H H H H H H H H ",
"H H H H H H H H H H H H H d           O v v v v         v v # & G H H H H H H H H H H H H H H H H H ",
"H H H H H H H H H H H d , : x c c c x c D X.~ ~ x x x x D ~ c x 5 d G H H H H H H H H H H H H H H H ",
"H H H H H H H H H H H d   - v v v v v V o.O.O.O.v c n n o.O.n n $ & G H H H H H H H H H H H H H H H ",
"H H H H H H H H H H H J k l $ w X.X.X.X.O.O.O.O.X.X.~ O.O.O.O.X.~ ~ 9 2 f H H H H H H H H H H H H H ",
"H H H H H H H H H H H J k h o > O.O.O.O.O.O.O.O.O.o.O.O.O.O.o.O.O.O.w X d H H H H H H H H H H H H H ",
"H H H H H H H H H H H d @ w ~ O.O.O.O.O.O.O.o.O.O.O.O.O.O.O.O.o.O.O.M v ; & f H H H H H H H H H H H ",
"H H H H H H H H H H H d   7 O.O.O.O.O.O.O.O.~ X.O.O.X.O.O.O.O.O.O.O.V n : ; f f H H H H H H H H H H ",
"H H H H H H H H H H H d   w o.o.o.O.O.X.n c v n O.O.n v O.O.O.O.O.O.M M v n :   d H H H H H H H H H ",
"H H H H H H H H H G d a = e ~ X.O.O.O.+.*.$.v n O.O.*.*.O.O.O.O.O.o.C V c x 2 & d H H H H H H H H H ",
"H H H H H H H H H d   ; n v n V O.O.O.*.B.m.n n O.O.M.B.&.O.O.O.O.O.O.O.w @ d H G H H H H H H H H H ",
"H H H H H H H H H d < 3 z z n V O.#.r.t.B.m.w.0.O.o.B.B.t.r.@.O.O.o.O.O.w @ G H H H H H H H H H H H ",
"H H H H H H H H H H H d   : v V / =.V.M.V.B.B.M.O.O.M.B.B.B.*./ o.O.O.O.w @ G H H H H H H H H H H H ",
"H H H H H H H H H H H d   : C C o.=.V.M.i.i.Z.Z.i.i.Z.Z.i.i.i.i.+.U O.O.M b g p f H H H H H H H H H ",
"H H H H H H H H H H H d   7 O.o.O.=.V.n.  c F.F.B.B.F.F.c   n.B.@.v X.o.O.O.w   d H H H H H H H H H ",
"H H H H H H H H H f 4 a t M O.@.8.e.B.n.# b F.F.Z.Z.F.F.M # n.B.y.7.o.D M b 9 p f H H H H H H H H H ",
"H H H H H H H H H a   : C D o.%.u.p.B.n.; n F.F.F.F.F.F.M : n.B.p.u.+.C :   d H H H H H H H H H H H ",
"H H H H H H H H H H a a w t D X.6.q.B.M.x.x.F.F.F.F.F.F.b.x.M.B.8.6.D C :   d H H H H H H H H H H H ",
"H H H H H H H H H H H d   : C C C $.B.B.F.F.F.F.F.F.F.F.F.F.B.B.$.C C C :   d H H H H H H H H H H H ",
"H H H H H H H H H H H H d a : w C ~ =.w.V.Z.F.F.F.F.F.F.V.V.w.;.D C w > d d f H H H H H H H H H H H ",
"H H H H H H H H H H H H H d   ; C C C @.B.V.F.F.F.F.F.F.B.B.#.C C C 9 4 H H H H H H H H H H H H H H ",
"H H H H H H H H H H H H H K | ! $ : C C C o.B.V.B.V.B.V.o.C C C > = f H H H H H H H H H H H H H H H ",
"H H H H H H H H H H H H H L  .)   = S C X e B.B.M.B.M.B.i   S S -   f H H H H H H H H H H H H H H H ",
"H H H H H H H H H H H H H I 2.1.  y >.>.e Z N.N.N.A.N.N.Z e :.>.y   f H H H H H H H H H H H H H H H ",
"H H H H H H H H H H H H H ' 2.1.  y 3.>.i Z A.A.A.A.N.N.Z t >.3.y   f H H H H H H H H H H H H H H H ",
"H H H H H H H H H H H H H ' 5.1.  y 3.>.Z _ H.H.H.H.N.N./ Z >.3.y   d H H H H H H H H H H H H H H H ",
"H H H H H H H H H H H H H I 1...$ u a.a.U _ H.H.H.H.S.S._ Z 4.a.u $ f H H H H H H H H H H H H H H H ",
"H H H H H H H H H H H H H d   # t Z h.d.B _ H.H.H.H.H.H._ B f.h.Z e 6 & f H H H H H H H H H H H H H ",
"H H H H H H H H H H H H H d   $ b E d.s.Z _ G.G.H.H.H.H._ R s.d.Z r #   d H H H H H H H H H H H H H ",
"H H H H H H H H H H H H H d   * R E 3.>.U / N.N.H.H.H.H._ B >.3.m e #   d H H H H H H H H H H H H H ",
"H H H H H H H H H H H d 5 a r i Z R -.-.Z / D.D.D.D.H.H._ Z ` -.r > r r p p d G G H H H H H H H H H ",
"H H H H H H H H H H G d   2 U Z R A t t R _ H.H.N.N.H.H._ Z t t @   N Z >   d G H H H H H H H H H H ",
"H H H H H H H H H H H d   ~ z.z.k.k.t t b R l.l.r.l.l.l.U b t t O   t.j.S   d H H H H H H H H H H H ",
"H H H H H H H H H H H d   *.F.F.F.C.t t t t [ [ T [ [ [ t t t t O   v.B.#.  d H H H H H H H H H H H ",
"H H H H H H H H H H H G a R w.w.w.9.Q Q } } ,.,.,.,.<.,.,.{ ] T *   $.;.P d G H H H H H H H H H H H ",
"H H H H H H H H H H H H H d       6 { { <.<.<.<.<.<.<.<.<.<.{ { 6   @ @ d G H H H H H H H H H H H H ",
"H H H H H H H H H H H H H G G p   6 { { <.<.<.<.{ { <.<.<.<.{ { 6   d G G H H H H H H H H H H H H H ",
"H H H H H H H H H H H H H G G G   6 { { <.<.<.<.{ { <.<.<.<.{ { 6   d H H H H H H H H H H H H H H H ",
"H H H H H H H H H H H H H H H G . 0 <.<.<.<.{ { * * { { <.<.{ { 6   G H H H H H H H H H H H H H H H ",
"H H H H H H H H H H H H H H H G Y T <.<.{ T s * + @ [ T <.<.{ [ 6   G H H H H H H H H H H H H H H H ",
"H H H H H H H H H H H H H H H G + * T { { { 6 . G G @ @ ] { [ { 6   G G H H H H H H H H H H H H H H ",
"H H H H H H H H H H H H H G G G @ @ Y [ T T 0 + H H     T ] ] T <   G H H H H H H H H H H H H H H H ",
"H H H H H H H H H H H H H H H G % o > w e w # . H H .   w e w e o   f H H H H H H H H H H H H H H H ",
"H H H H H H H H H H H H H H H G % o e i i u $ . H H @   i u i i o   f H H H H H H H H H H H H H H H ",
"H H H H H H H H H H H H H H H H < O A F F F > . H H ,   F F F F >   d H H H H H H H H H H H H H H H ",
"H H H H H H H H H H H H H H H H d a Z Z A A q 1 H G d p Z A Z A 8 1 f H H H H H H H H H H H H H H H ",
"H H H H H H H H H H H H H H H H H H K k j j J G H H H H K k j j H H H H H H H H H H H H H H H H H H ",
"H H H H H H H H H H H H H H H H H H H H G H H H H H H H H H J H H H H H H H H H H H H H H H H H H H "
};
