/* XPM */
static char *result[] = {
/* columns rows colors chars-per-pixel */
"50 50 121 2 ",
"   c #437F3F",
".  c #322C43",
"X  c #3C2F45",
"o  c #2E3547",
"O  c #2E3A47",
"+  c #2B3B49",
"@  c #313245",
"#  c #3B3246",
"$  c #323B44",
"%  c #393749",
"&  c #323C4A",
"*  c #393849",
"=  c #433147",
"-  c #4B3347",
";  c #453248",
":  c #4C344A",
">  c #433B4C",
",  c #4B3A4C",
"<  c #543647",
"1  c #5B3646",
"2  c #593B46",
"3  c #53364C",
"4  c #583749",
"5  c #543A4E",
"6  c #5B394C",
"7  c #5C3B50",
"8  c #633947",
"9  c #633C4C",
"0  c #693D4D",
"q  c #723F4C",
"w  c #633C51",
"e  c #693E52",
"r  c #2F4646",
"t  c #2F4B47",
"y  c #25444D",
"u  c #29424B",
"i  c #234C4F",
"p  c #2A4C4A",
"a  c #314345",
"s  c #3D4447",
"d  c #324C44",
"f  c #384F46",
"g  c #33464F",
"h  c #3C4B4B",
"j  c #25544E",
"k  c #2B544B",
"l  c #27594D",
"z  c #295D4C",
"x  c #335343",
"c  c #335F44",
"v  c #3A5B41",
"b  c #3E534A",
"n  c #214A50",
"m  c #2B4950",
"M  c #3D4450",
"N  c #3B4C50",
"B  c #2F6C47",
"V  c #2B634B",
"C  c #2E6C49",
"Z  c #336244",
"A  c #326B45",
"S  c #386D42",
"D  c #306149",
"F  c #326A4A",
"G  c #2F7149",
"H  c #327446",
"J  c #3B7244",
"K  c #347B45",
"L  c #3A7D43",
"P  c #327448",
"I  c #3E7148",
"U  c #367948",
"Y  c #387C49",
"T  c #50504F",
"R  c #474552",
"E  c #4F4850",
"W  c #564952",
"Q  c #674147",
"!  c #68414D",
"~  c #76424E",
"^  c #7A434F",
"/  c #735B4F",
"(  c #6E4053",
")  c #754351",
"_  c #7C4451",
"`  c #6F5351",
"'  c #44614D",
"]  c #407540",
"[  c #86464E",
"{  c #8B474C",
"}  c #854B4D",
"|  c #8F4B4F",
" . c #924B4D",
".. c #984F4C",
"X. c #88524D",
"o. c #93524D",
"O. c #9E564E",
"+. c #9D5C4D",
"@. c #834650",
"#. c #864B52",
"$. c #894B50",
"%. c #955450",
"&. c #A55C4E",
"*. c #AC644F",
"=. c #B06750",
"-. c #3F953F",
";. c #468B3E",
":. c #42963F",
">. c #49923D",
",. c #449B3F",
"<. c #47A13D",
"1. c #4AA43D",
"2. c #4DAA3B",
"3. c #50AE3A",
"4. c #368344",
"5. c #3A8444",
"6. c #3C8C42",
"7. c #3D9141",
"8. c #418F44",
"9. c #429441",
"0. c #449841",
/* pixels */
". . . . . . . . . . . . . . . . . . . . . . . . . . . . . . . . . . . . . . . . . . . . . . . . . . ",
". . . . . . . . . . . . . . . . . . . . . . . . . . . . . . . . . . . . . . . . . . . . . . . . . . ",
". . . . . . . . . . . . . . . . . . . . . . . . . . . . . . . . . . . . . . . . . . . . . . . . . . ",
". . . . . . . . . . . . . . . . . . . . . . . . . . . . . . . . . . . . . . . . . . . . . . . . . . ",
". . . . . . . . . . . . . . . . . . . . . . . . . . . . . . . . . . . . . . . . . . . . . . . . . . ",
". . . . . . . . . . . . . . . . . . . . . . . . . . . . . . . . . . . . . . . . . . . . . . . . . . ",
". . . . . . . . . . . . . . . . . . . . . . . . . . . . . . . . . . . . . . . . . . . . . . . . . . ",
". . . . . . . . . . . . . . . . . . . . . . . . . . . . . . . . . . . . . . . . . . . . . . . . . . ",
". . . . . . . . . . . . . . . . . . . . . . . . . . . . . . . . . . . . . . . . . . . . . . . . . . ",
". . . . . . . . . . . . . . . . . . . . $ x a a $ O @ d $ . . . . . . . . . . . . . . . . . . . . . ",
". . . . . . . . . . . . . . . . . . . @ d S H k c z r A d . . . . . . . . . . . . . . . . . . . . . ",
". . . . . . . . . . . . . . . . . . $ d L A 4.l z l i i o . . . . . . . . . . . . . . . . . . . . . ",
". . . . . . . . . . . . . . . . . @ ;.-.,.<.<.4.4.-.H C l O . . . . . . . . . . . . . . . . . . . . ",
". . . . . . . . . . . . . . . S x y A 6.7.:.<.,.-.1.K V V k o u + o . . . . . . . . . . . . . . . . ",
". . . . . . . . . . . . . . . c Z O k 7.,.1.1.2.-.4.K z i i k z j y o . . . . . . . . . . . . . . . ",
". . . . . . . . . . . . . f ] L H k j U -.K -.4.:.6.-.z i j z V l y y . . . . . . . . . . . . . . . ",
". . . . . . . . . . .   8.c 4.k H 6.G n l j 4.L 0.5.G j D + i l j j + . o . . . . . . . . . . . . . ",
". . . . . . . . . . . $ c 9.4.1.K 0.l V l n Y 0.4.V z l j + i i n n i l p . . . . . . . . . . . . . ",
". . . . . . . . . . . A ,.1.,.2.-.-.1.P 4.P j P V j V l h > y n i K z z y y O . . o o . . . . . . . ",
". . . . . . . . . . . Z 4.>.0.2.6.7.0.H K C V j z n z W 7 * g y H H -.H V i t t + y + o . . . . . . ",
". . . . . . . . . . f H K K 6.0.7.4.H 6.H V n n n n M , * % > i G K 4.4.K V z z j z i + . . . . . . ",
". . . . . . @ . @ a O k 6.6.H 4.6.H 7.0.4.C j n y @ @ y n j i C H 4.4.4.P l i V j l i + . . . . . . ",
". . . . . + J -.S p D H U 4.1.P H 4.6.K 0.P C 9.L k V z V V u x K H G H B z V n V z B r . . . . . . ",
". . . . x L :.1.G y i l V G z l 0.6.A C C V l :.1.4.G H K B r Z 4.4.4.G p l j z j l j y o . . . . . ",
". . . Z S 0.1.,.l U K 6.U U C i A F s j l z H 6.,.L K K H G V l U K G z u i z j n n n y o . . . . . ",
". . @ ;.5.6.<.<.l 6.0.6.4.C P n E 5 + j V 6.K C U 4.8.P V G C j i C l l a j V n n n n y o . . . . . ",
". . v >.:.2.7.8.H 2.3.3.7.4.6.j w & V j l K B j O O z z j z C C i C m > $ n n y n n n n + . . . . . ",
". . . . S 5.n j 4.<.:.1.6.C G N X n V V K G j $ @ y n V l n V n n & 5 + j l y O n n + n + . . . . . ",
". . . . k u n z K 1.5.9.6.4.i g O C z V V V + + n V i V i n i V + . + l z j V k @ o + + @ . . . . . ",
". . . . @ o y z F 6.K K 5.5.V n y G l l j j r j n V j l i n n z y y n i z n i o . . . . . . . . . . ",
". . . . . @ . @ o z U U V l G z i P l C j l z V n j C n n n n n n y y n n z p . . . . . . . . . . . ",
". . . . . . . . y + j j n F i 4.l y n i y + n n n n n n n n n n n . y + n j i . . . . . . . . . . . ",
". . . . . . . . . . + @ o i n j + 5 * + n n o % R n n l V n n u o . y + o O . . . . . . . . . . . . ",
". . . . . . . . . . . . d p y y @ X 7 X + o $ . 3 W G C 4.k o , ; o o o . . . . . . . . . . . . . . ",
". . . . . . . . . . . . $ . O @ . . w 0 6 . . # = W J 4.K H & : . o o . . . . . . . . . . . . . . . ",
". . . . . . . . . . . . . . . . . . 3 #.| 6 Q 3 . 5 I C G V A o . . . . . . . . . . . . . . . . . . ",
". . . . . . . . . . . . . . . . . . . 3 _ _ | - X ' 5.U K l t O . . . . . . . . . . . . . . . . . . ",
". . . . . . . . . . . . . . . . . . . . X ; 4 w 8 / b r y + u . . . . . . . . . . . . . . . . . . . ",
". . . . . . . . . . . . . . . . . . . . . . X 4 4 %.- ; # . . . . . . . . . . . . . . . . . . . . . ",
". . . . . . . . . . . . . . . . . . . . . . X 4 7 #.6 6 : . . . . . . . . . . . . . . . . . . . . . ",
". . . . . . . . . . . . . . . . . . . . . . 0  .e 0 6 8 9 . . . . . . . . . . . . . . . . . . . . . ",
". . . . . . . . . . . . . . . . . . . . . =  ._ - { - q : . . . . . . . . . . . . . . . . . . . . . ",
". . . . . . . . . . . . . . . . . . . . x ~ | : 6 8 } ~ 3 . . . . . . . . . . . . . . . . . . . . . ",
". . . . . . . . . . . . . . . . . . Z Z h #.[ # ! o...1 3 . . . . . . . . . . . . . . . . . . . . . ",
". . . . . . . . . . . . . . . . . . $ Z D ^ ) X.*.*.8 - - @ d d . . . . . . . . . . . . . . . . . . ",
". . . . . . . . . . . . . . . . . . d t T o.w +.=.o.4 0 # y C p . . . . . . . . . . . . . . . . . . ",
". . . . . . . . . . . . . . . . . . A H ` O.e q $.e = [ 5 + j z + . . . . . . . . . . . . . . . . . ",
". . . . . . . . . . . . . . . . . . . , _  .w %.&. .3 [ ) # n m . . . . . . . . . . . . . . . . . . ",
". . . . . . . . . . . . . . . . . . . 6 q @.7 e { q : e e 7 . . . . . . . . . . . . . . . . . . . . ",
". . . . . . . . . . . . . . . . . . . : w 0 ; : w : . 3 7 3 . . . . . . . . . . . . . . . . . . . . "
};
